<svg width="34" height="36" viewBox="0 0 34 36" fill="none" xmlns="http://www.w3.org/2000/svg">
<path d="M17 0C7.616 0 0 8.064 0 18C0 27.936 7.616 36 17 36C26.384 36 34 27.936 34 18C34 8.064 26.384 0 17 0ZM17 5.4C19.822 5.4 22.1 7.812 22.1 10.8C22.1 13.788 19.822 16.2 17 16.2C14.178 16.2 11.9 13.788 11.9 10.8C11.9 7.812 14.178 5.4 17 5.4ZM17 30.96C12.75 30.96 8.993 28.656 6.8 25.164C6.851 21.582 13.6 19.62 17 19.62C20.383 19.62 27.149 21.582 27.2 25.164C25.007 28.656 21.25 30.96 17 30.96Z" fill="black"/>
</svg>
