<svg width="34" height="36" viewBox="0 0 34 36" fill="none" xmlns="http://www.w3.org/2000/svg">
<path d="M21.9583 7.02439C23.5167 7.02439 24.7917 5.4439 24.7917 3.5122C24.7917 1.58049 23.5167 0 21.9583 0C20.4 0 19.125 1.58049 19.125 3.5122C19.125 5.4439 20.4 7.02439 21.9583 7.02439ZM7.08333 18.439C3.11667 18.439 0 22.3024 0 27.2195C0 32.1366 3.11667 36 7.08333 36C11.05 36 14.1667 32.1366 14.1667 27.2195C14.1667 22.3024 11.05 18.439 7.08333 18.439ZM7.08333 33.3659C4.39167 33.3659 2.125 30.5561 2.125 27.2195C2.125 23.8829 4.39167 21.0732 7.08333 21.0732C9.775 21.0732 12.0417 23.8829 12.0417 27.2195C12.0417 30.5561 9.775 33.3659 7.08333 33.3659ZM15.3 15.8049L18.7 11.5902L19.8333 12.9951C21.675 15.278 24.0833 16.6829 27.0583 16.6829V13.1707C24.9333 13.1707 23.2333 12.1171 21.9583 10.5366L19.2667 7.2C18.5583 6.49756 17.85 6.14634 17 6.14634C16.15 6.14634 15.4417 6.49756 15.0167 7.2L11.05 12.1171C10.4833 12.8195 10.2 13.6976 10.2 14.5756C10.2 15.6293 10.4833 16.5073 11.05 17.0341L15.5833 21.9512V30.7317H18.4167V19.8439L15.3 15.8049ZM26.9167 18.439C22.95 18.439 19.8333 22.3024 19.8333 27.2195C19.8333 32.1366 22.95 36 26.9167 36C30.8833 36 34 32.1366 34 27.2195C34 22.3024 30.8833 18.439 26.9167 18.439ZM26.9167 33.3659C24.225 33.3659 21.9583 30.5561 21.9583 27.2195C21.9583 23.8829 24.225 21.0732 26.9167 21.0732C29.6083 21.0732 31.875 23.8829 31.875 27.2195C31.875 30.5561 29.6083 33.3659 26.9167 33.3659Z" fill="black"/>
</svg>
