<svg width="35" height="36" viewBox="0 0 35 36" fill="none" xmlns="http://www.w3.org/2000/svg">
<path d="M30.1204 12.1026H28.0139V8.70514C28.0139 4.01668 23.2954 0.211548 17.4815 0.211548C11.6676 0.211548 6.94908 4.01668 6.94908 8.70514V12.1026H4.8426C2.52547 12.1026 0.629639 13.6314 0.629639 15.5V32.4872C0.629639 34.3558 2.52547 35.8846 4.8426 35.8846H30.1204C32.4375 35.8846 34.3333 34.3558 34.3333 32.4872V15.5C34.3333 13.6314 32.4375 12.1026 30.1204 12.1026ZM17.4815 27.391C15.1644 27.391 13.2685 25.8622 13.2685 23.9936C13.2685 22.125 15.1644 20.5962 17.4815 20.5962C19.7986 20.5962 21.6945 22.125 21.6945 23.9936C21.6945 25.8622 19.7986 27.391 17.4815 27.391ZM24.0116 12.1026H10.9514V8.70514C10.9514 5.80033 13.8794 3.43911 17.4815 3.43911C21.0836 3.43911 24.0116 5.80033 24.0116 8.70514V12.1026Z" fill="black"/>
</svg>
